<svg xmlns="http://www.w3.org/2000/svg" viewBox="0 0 72.01 48.83"><defs><style>.cls-1{fill:#fbbc99;}</style></defs><title>hvid_pil_2</title><g id="Layer_2" data-name="Layer 2"><g id="OBJECTS"><path class="cls-1" d="M36,48.83a3.62,3.62,0,0,1-2.56-1.06L1.06,15.37a3.61,3.61,0,1,1,5.1-5.1L36,40.11,65.85,10.27a3.61,3.61,0,1,1,5.1,5.1L38.56,47.77A3.59,3.59,0,0,1,36,48.83Z"/><path class="cls-1" d="M36,24.53a3.62,3.62,0,0,1-2.56-1.06L16.15,6.16a3.55,3.55,0,0,1-1.06-2.55,3.54,3.54,0,0,1,1.05-2.55,3.61,3.61,0,0,1,5.11,0L36,15.81,50.7,1.12a3.62,3.62,0,0,1,5.11,0,3.61,3.61,0,0,1,0,5.11L38.56,23.47A3.59,3.59,0,0,1,36,24.53Z"/></g></g></svg>